<?xml version="1.0" ?><!DOCTYPE svg  PUBLIC '-//W3C//DTD SVG 1.1//EN'  'http://www.w3.org/Graphics/SVG/1.1/DTD/svg11.dtd'><svg height="512px" style="enable-background:new 0 0 512 512;" version="1.1" viewBox="0 0 512 512" width="512px" xml:space="preserve" xmlns="http://www.w3.org/2000/svg" xmlns:xlink="http://www.w3.org/1999/xlink"><g id="_x31_02"><g><g><g><g><g><g><path d="M395.5,265.506c0.017,0.391,0.738,0.122,0.885,0.157         C396.077,265.025,395.311,265.567,395.5,265.506z" style="fill:#202020;"/><path d="M391.651,260.74l0.313-0.092c0,0-0.271-0.062-0.541-0.123c-0.264-0.061-0.54-0.098-0.54-0.098         C390.891,260.413,391.651,260.74,391.651,260.74z" style="fill:#202020;"/><path d="M388.176,257.055c-0.207,0.67,0.18,0.868,0.645,1.098c0.478,0.207,1.072,0.42,1.201,0.915         l-0.119,0.307c0,0,0.264-0.101,0.526-0.202c0.267-0.095,0.534-0.19,0.534-0.19         C390.065,258.216,388.577,257.774,388.176,257.055z" style="fill:#202020;"/><path d="M387.168,253.106c-0.058,0.546-0.808,0.058,0.582,0.496c-0.036-0.083-0.039-0.121-0.057-0.176         C387.576,253.37,387.42,253.283,387.168,253.106z" style="fill:#202020;"/><path d="M387.693,253.426C388.271,253.702,387.534,252.854,387.693,253.426L387.693,253.426z" style="fill:#202020;"/><path d="M384.906,252.479c0,0,0.239-0.036,0.478-0.072c0.24-0.033,0.476-0.048,0.476-0.048         c-0.039-0.359-0.762-0.68-0.411-0.786C384.498,251.506,384.607,251.859,384.906,252.479z" style="fill:#202020;"/><path d="M383.876,253.131l0.45-0.051C384.298,252.939,384.201,252.86,383.876,253.131z" style="fill:#202020;"/><path d="M385.306,252.997c0,0-0.248,0.015-0.493,0.037c-0.243,0.023-0.486,0.046-0.486,0.046         c0.047,0.238-0.088,0.636,0.433-0.005C384.561,253.415,384.847,253.117,385.306,252.997z" style="fill:#202020;"/><path d="M385.692,253.379c0.308,0.443,0.729,0.827-0.161,0.923c0.706,0.202,1.097,0.132,1.157-0.1         C386.751,253.971,386.443,253.597,385.692,253.379z" style="fill:#202020;"/><path d="M387.176,257.979l0.147,0.595l0.601-0.085C387.627,258.531,387.396,257.636,387.176,257.979z" style="fill:#202020;"/><path d="M379.682,250.849c-0.058,0.274,0.288,0.749,0.335,1.105l0.652-0.284         C380.356,251.46,379.726,251.259,379.682,250.849z" style="fill:#202020;"/><path d="M380.017,251.954c0,0-0.235,0.109-0.471,0.218c-0.202,0.114-0.333,0.236-0.343,0.235         c0.254,0.023,0.539-0.004,0.669-0.086C380.008,252.238,380.038,252.107,380.017,251.954z" style="fill:#202020;"/><path d="M383.335,254.471c0,0,0.392-0.131,0.783-0.262c0.399-0.125,0.821-0.238,0.821-0.238         s-0.487,0.094-0.947,0.203c-0.228,0.057-0.454,0.114-0.625,0.157c-0.17,0.054-0.282,0.09-0.282,0.09L383.335,254.471z" style="fill:#202020;"/><polygon points="377.147,250.807 377.513,250.168 376.862,251.134        " style="fill:#202020;"/><path d="M375.516,250.919c0.271-0.53-0.371-0.897-0.085-1.223c-0.443,0.095-0.822,0.55-1.163,0.959         C374.63,250.427,375.016,250.486,375.516,250.919z" style="fill:#202020;"/><path d="M373.695,251.251c0.181-0.127,0.368-0.354,0.572-0.596         C374.075,250.777,373.886,250.954,373.695,251.251z" style="fill:#202020;"/><path d="M378.106,252.27c-0.05-0.167-0.146-0.604-0.508-0.789l0.254,0.777         C377.93,252.262,378.018,252.266,378.106,252.27z" style="fill:#202020;"/><path d="M377.861,252.283l-0.009-0.025c-0.275-0.021-0.466-0.037-0.548-0.043         C377.375,252.224,377.543,252.245,377.861,252.283z" style="fill:#202020;"/><path d="M378.17,252.273c-0.023-0.001-0.041-0.002-0.063-0.003         C378.131,252.347,378.146,252.372,378.17,252.273z" style="fill:#202020;"/><path d="M381.36,253.341c-0.571,0.33-1.554,0.782-0.682,1.483         C381.066,254.339,380.547,253.887,381.36,253.341z" style="fill:#202020;"/><path d="M378.484,253.246l0.685,0.178c-0.014-0.205-0.137-0.504,0.051-0.721L378.484,253.246z" style="fill:#202020;"/><polygon points="378.149,253.492 378.484,253.246 378.23,253.18        " style="fill:#202020;"/><path d="M374.867,251.979c-0.295,0.338-0.618,0.367-0.983,0.422c0.392,0.153,0.796,0.234,1.181,0.233         C375.118,252.39,375.287,251.952,374.867,251.979z" style="fill:#202020;"/><path d="M376.322,252.195c-0.021,0.014-0.047,0.032-0.065,0.044         C376.297,252.306,376.329,252.327,376.322,252.195z" style="fill:#202020;"/><path d="M370.287,252.396c0.021,0.048,0.038,0.091,0.059,0.141c0.004-0.045,0.008-0.083,0.013-0.134         L370.287,252.396z" style="fill:#202020;"/><path d="M375.13,252.779c0.294,0.15,0.47-0.04,0.638-0.28c-0.22,0.079-0.453,0.129-0.703,0.135         C375.04,252.745,375.035,252.818,375.13,252.779z" style="fill:#202020;"/><path d="M372.692,251.615c0.153,0.163,0.327,0.3,0.51,0.427         C373.052,251.797,372.746,251.413,372.692,251.615z" style="fill:#202020;"/><path d="M376.157,252.025c0.015-0.013,0.028-0.027,0.044-0.035         C376.105,251.823,376.117,251.905,376.157,252.025z" style="fill:#202020;"/><path d="M376.157,252.025c-0.151,0.112-0.271,0.304-0.39,0.474c0.179-0.061,0.345-0.145,0.489-0.259         C376.221,252.185,376.184,252.101,376.157,252.025z" style="fill:#202020;"/><path d="M369.198,257.388c0.052-0.721,0.825-1.387,1.493-0.614c0.657-0.54,0.228-2.911-0.346-4.237         c-0.021,0.314-0.021,0.605-0.697,1.031c0.237,0.394,1.501,0.921,0.93,1.573c-0.896,0.371-0.733-0.255-1.169-0.636         c0.37,0.898-1.14,1.307-0.944,2.627l0.785-0.465C369.265,256.873,368.979,257.2,369.198,257.388z" style="fill:#202020;"/><path d="M371.634,252.61l0.278-0.089c-0.317-0.125-0.545-0.414-0.963-0.978         c-0.463,0.352-0.559,0.62-0.591,0.859l1.37,0.101L371.634,252.61z" style="fill:#202020;"/><path d="M373.161,252.518c-0.217,0.784-0.886,1.118-0.476,1.967c0.816-0.054,0.572-0.655,1.06-0.996         c-1.317,0.194,0.379-0.437-0.573-0.881c0.259-0.133,0.491-0.174,0.712-0.207c-0.237-0.096-0.467-0.214-0.682-0.359         c0.012,0.019,0.021,0.033,0.03,0.048l0.006-0.002l-0.001,0.012c0.057,0.098,0.075,0.157,0.011,0.101         c-0.004,0.01-0.02,0.014-0.027,0.016c-0.009,0.109-0.033,0.204-0.06,0.296c-0.382-0.162-0.06-0.204,0.06-0.296         c0.005-0.039,0.015-0.075,0.017-0.117l-0.005-0.01l-1.32,0.43C372.191,252.63,372.541,252.608,373.161,252.518z" style="fill:#202020;"/><path d="M379.794,256.468c-0.04-0.071-0.037-0.127-0.039-0.184         C379.664,256.375,379.631,256.439,379.794,256.468z" style="fill:#202020;"/><path d="M379.243,255.979c0.1-0.107,0.163-0.43,0.514-0.329c0.289,0.25-0.014,0.375-0.002,0.634         c0.19-0.199,0.745-0.527,0.102-0.94l-0.108,0.102c-0.59-0.294-1.23-1.255-1.15-1.368         C378.753,254.783,378.89,255.286,379.243,255.979z" style="fill:#202020;"/><path d="M376.164,254.449l-1.099,0.384l0.56,0.679l-0.028-0.408         C376.222,255.264,376.087,254.762,376.164,254.449z" style="fill:#202020;"/><polygon points="370.162,252.005 370.308,251.177 369.673,252.347        " style="fill:#202020;"/><polygon points="368.733,252.104 368.786,251.384 368.409,251.819        " style="fill:#202020;"/><path d="M253.811,424.385l2.325-0.205C255.036,424.244,254.329,424.313,253.811,424.385z" style="fill:#202020;"/><path d="M236.978,424.336l-0.413,0.354C237.345,424.495,237.665,424.351,236.978,424.336z" style="fill:#202020;"/><path d="M117.9,258.884c-1.698,1.585-3.179,3.828-3.869,5.751c-0.379,1.086-0.494,1.462-0.559,1.829         c-0.055,0.346,0.003,0.518,0.22,0.451l0.957-0.888c0.016-0.236,0.117-0.744,0.19-1.115c0.073-0.4,0.168-0.78,0.29-1.137         c0.21-0.731,0.493-1.378,0.782-1.979C116.509,260.612,117.19,259.659,117.9,258.884z" style="fill:#202020;"/><path d="M99.087,428.343c-0.295-0.137-0.585-0.315-0.868-0.47c-0.817-0.002-1.646-0.089-2.364-0.312         C96.797,427.998,97.923,428.295,99.087,428.343z" style="fill:#202020;"/><path d="M101.429,425.259l4.465,0.509C104.89,425.59,103.454,425.42,101.429,425.259z" style="fill:#202020;"/><path d="M345.748,423.548l2.712-0.805C344.216,422.747,346.084,423.152,345.748,423.548z" style="fill:#202020;"/><path d="M267.157,252.396c-2.924-0.309-5.249-0.438-7.292-0.477         C263.387,252.372,266.227,253.053,267.157,252.396z" style="fill:#202020;"/><path d="M247.187,432.764c1.423-0.143,2.031-0.304,1.989-0.479         C247.711,432.419,246.883,432.569,247.187,432.764z" style="fill:#202020;"/><path d="M251.424,251.922c0.515,0.079,1.021,0.119,1.545,0.186c2.137-0.132,4.286-0.239,6.896-0.188         C257.265,251.581,254.287,251.374,251.424,251.922z" style="fill:#202020;"/><path d="M389.761,284.503c0.029-0.039,0.039-0.082,0.075-0.119         C389.729,284.392,389.731,284.438,389.761,284.503z" style="fill:#202020;"/><path d="M395.286,269.838c0.071,0.123,0.109,0.336,0.155,0.535         C395.478,270.267,395.443,270.103,395.286,269.838z" style="fill:#202020;"/><path d="M331.102,251.76C333.282,251.708,331.446,251.672,331.102,251.76L331.102,251.76z" style="fill:#202020;"/><path d="M341.707,254.883c-0.464,0.088-0.815,0.202-0.87,0.384         C341.017,255.077,341.32,254.956,341.707,254.883z" style="fill:#202020;"/><path d="M229.7,256.836c-0.064-0.001-0.115-0.001-0.189-0.002         C230.161,256.988,230.049,256.958,229.7,256.836z" style="fill:#202020;"/><path d="M334.383,252.119c-0.819-0.097-1.763-0.178-2.789-0.235         C332.045,251.946,332.893,252.022,334.383,252.119z" style="fill:#202020;"/><path d="M333.941,251.746c0.752,0.03,1.344,0.054,1.906,0.077         C336.123,251.69,335.88,251.608,333.941,251.746z" style="fill:#202020;"/><path d="M328.063,251.802c1.247-0.012,2.412,0.025,3.531,0.082c-0.429-0.053-0.607-0.098-0.492-0.124         C330.461,251.769,329.56,251.782,328.063,251.802z" style="fill:#202020;"/><path d="M402.344,344.223c0-0.146-0.013-0.313-0.007-0.474         C401.635,341.638,401.854,342.581,402.344,344.223z" style="fill:#202020;"/><path d="M114.052,317.738c0.01-0.103-0.001-0.159,0.005-0.252c-0.026,0.099-0.059,0.223-0.083,0.313         L114.052,317.738z" style="fill:#202020;"/><path d="M113.282,325.556c-0.394-3.455,0.052-5.303,0.692-7.756l-2.689,2.159L113.282,325.556z" style="fill:#202020;"/><path d="M294.118,424.157l-5.502-0.709c6.641-1.168,11.444-0.766,6.279-1.764         c-0.777,2.473-21.382,0.254-22.146,2.723l-3.627-0.52c1.039,0.024,1.206-0.121,2.232-0.097         c-7.053-1.184-5.239,1.787-14.326,1.436c-3.167-0.189-5.376-0.549-3.217-0.842l-7.056,0.611         c-2.053-0.049-1.551-0.478,0.493-0.431l-10.763,0.197l0.08-0.072c-1.536,0.388-5.016,0.987-6.714,1.242         c-2.735-0.354,1.372-0.262,0.672-0.57l-5.959,0.599c-2.428-0.641,2.511-1.262,6.627-1.17         c-5.565-2.468-4.945,0.622-16.955-0.819l5.626-0.314c-3.627-1.401-8.019-0.894-14.38-1.769         c1.51,0.457,12.736,2.204,6.269,2.819c-1.823-0.187-4.225-0.275-7.715,0.222c-0.032-0.879-3.438-0.662-7.702-0.612         l0.291-1.165c-4.609,0.336-4.245,0.929-6.957,1.453c-5.137-0.115-6.202-1.017-7.411-1.776         c-8.227-0.185,5.681,1.446-4.056,1.666c-6.841-0.445-11.646,0.03-19.831,0.727c-4.788-0.4,0.838-0.712-0.879-1.045         l-4.245,0.929c-1.04-0.022-0.704-0.308-0.534-0.451c-3.576,0.359-0.294,1.163-5.917,1.479         c-1.516,1.282-11.543-1.874-18.503-0.418c-1.714-0.331,0.828-0.713,0.304-1.164c-9.547,0.955-8.185,0.694-16.024,1.979         l-6.678-0.764c2.453,0.438,2.112,0.914,0.472,1.388c-0.82,0.237-1.965,0.474-3.249,0.704         c-0.642,0.108-1.318,0.224-2.005,0.34c-0.67,0.104-1.338,0.166-2.025,0.144c0.789,0.364,1.633,0.601,2.344,0.759         c0.714,0.168,1.335,0.304,1.834,0.392c0,0-0.547,0.039-1.369,0.098c-0.779,0.06-2.009,0.157-3.231-0.026         c-1.223-0.173-2.414-0.646-3.246-1.116c-0.42-0.231-0.756-0.454-0.975-0.633c-0.227-0.171-0.356-0.268-0.356-0.268         c-0.731-1.059,0.261-0.422,1.768,0.014c-0.29-0.127-0.567-0.267-0.811-0.427c-0.25-0.15-0.492-0.285-0.679-0.436         c-0.998-1.395-0.818-1.918-0.44-1.813c0.406,0.085,1.198,0.649,2.149,1.004c0.551,0.762,1.287,1.445,2.144,1.982         c1.094-0.016,2.077-0.341,2.685-0.685c0.71-0.366,1.111-0.734,0.883-1.074c-0.143,0.033-0.318,0.065-0.52,0.097         c-0.101,0.014-0.208,0.028-0.322,0.044c-0.086,0.009-0.178,0.018-0.273,0.026c-0.381,0.054-0.814,0.033-1.268-0.011         c0.462-0.124,0.728-0.254,0.562-0.398c-0.187-0.165-0.853,0.055-1.915-0.11c0,0-0.042-0.114-0.103-0.284         c-0.056-0.171-0.136-0.373-0.17-0.608c-0.041-0.228-0.073-0.436-0.086-0.593c-0.001-0.164-0.001-0.273-0.001-0.273         s-0.135,0.056-0.269,0.11c-0.142,0.051-0.284,0.103-0.284,0.103c-0.005,0.005-0.066-0.088-0.177-0.239         c-0.126-0.139-0.25-0.38-0.412-0.647c-0.294-0.562-0.515-1.385-0.49-2.251c0.003-0.216,0.006-0.43,0.05-0.648         c0.017-0.214,0.059-0.428,0.119-0.636c0.023-0.104,0.046-0.206,0.068-0.306c0.039-0.157,0.078-0.312,0.115-0.461         c0.074-0.3,0.145-0.583,0.21-0.845c0.26-1.046,0.434-1.743,0.434-1.743c0.125-8.307-0.54-15.667,1.175-28.585         c0.381,3.346,1.411,0.951,2.492,1.318c-1.788,3.295-1.236,10.021-2.638,16.628c0.73-3.447,1.126-2.593,1.157-1.678         l1.003-12.043c0.861,0.427,1.121-2.398,2.038-5.43c-2.205,2.026,0.349-9.047,0.642-13.967         c0.655-0.194,1.068,1.069-0.106,6.93c2.487-6.257-0.642-8.759,1.621-14.932c-0.237,1.439-0.465,2.198-0.258,2.818         c0.051-3.449,1.91-11.582,2.098-9.559l-0.239,1.436c1.881-9.503,5.09-29.041,3.815-30.731         c0.213-0.061,1.619,1.572,1.827,2.202l-2.155-17.92c1.048,1.729,5.173-3.482,4.53,4.559c0.583-2.239,1.292-5.012,1.668-9.882         c-0.457,1.518-2.569,3.532-2.319,1.394c2.475-5.558,1.486-3.899,3.981-10.847c-0.687,2.272-2.29-0.667-1.582-4.325         c0.207,0.627,2.081,0.048,2.06,1.428l-0.418-9.489c-0.036,2.345,1.638,0.702,2.565-1.243         c-0.56,0.879,1.417-7.893,1.644-10.363l-1.144,3.791c1.054-5.131,0.791-7.803,0.5-10.468         c-0.063-0.711-0.164-1.201-0.144-1.847c0.012-0.624,0.1-1.306,0.346-2.024c0.466-1.433,1.506-3.143,3.623-4.531         c-0.415,0.503-0.545,1.49-0.113,1.932c0.459,0.505,1.301,0.362,3.107-0.321c0.296-0.437,0.818-1.095,1.738-1.815         c0.479-0.355,0.991-0.682,1.753-0.987c0.766-0.3,1.595-0.608,2.477-0.917c3.527-1.23,7.9-2.43,12.496-2.834l1.762,0.599         l7.053-0.683c-4.392,1.577-16.715,4.896-23.445,6.188c3.918,0.475,1.091,0.706,6.96,0.652         c2.073,0.562-3.198,0.852-4.926,0.886l13.664,0.362c-0.608-1.225,10.449-1.228,9.928-2.247l-14.841,1.269         c-0.601-1.221,8.582-3.473,18.264-3.257c2.462,0.487-1.843,2.178-1.641,2.586c1.257-0.421,9.189-0.805,10.079-0.506         l-4.107,0.654c5.389,0.46,8.796-1.622,15.272-0.454c2.236,0.078,6.675,1.575,7.063,0.852         c-3.646-1.396-4.36-5.715-1.929-6.764c0.784,0.094,11.738,1.335,14.291,2.024c3.682,1.095-5.527,2.609-2.392,3.549         c0.134-0.334,2.168-0.746,3.016-0.879c2.348,0.285-0.973,1.035,4.129,0.885c0.851-1.241,10.376,0.104,2.412-1.049         c4.99-0.354,5.303,0.255,11.163,0.201c-1.865-0.802,5.261-2.729,10.26-3.083c-0.294,0.315,0.829,0.727,1.373,0.914         c10.229,0.112,15.72,0.675,25.258,0.687c0.879,0.301,5.482,0.663,3.521,1.197c1.372-0.219,2.633-0.64,5.575-0.669         c5.693,1.072-6.56,0.166-2.22,1.455c0.371-0.721,7.609-0.995,11.799-1.445c-1.289-1.113-9.682-0.213-13.878,0.236         c-0.02-1.535,7.286-3.144,17.256-3.854c7.923-0.382,3.436,0.992,4.811,0.774c14.883,0.269,12.679-2.682,25.037-1.574         c4.903,0.979,0.221,1.947,1.309,2.653c-6.454,0.371-9.909-0.621-14.284-0.582l5.386,0.463         c-2.053,0.325-6.361,0.572-8.709,0.288c4.11,0.88,25.144,0.169,36.626,0.981c2.04-0.329,5.562-0.668,3.896-1.061         l-3.634,0.136c-3.339-0.789,6.839-1.091,2.239-1.459c4.874-0.555,10.337-1.427,17.198-0.981l1.289,1.116         c-0.147-0.326-4.484-0.665-6.413-0.325c2.859-0.495,10.52,1.511,13.654,0.049l-4.811-0.773         c4.894-0.561,10.941-1.746,17.022-1.394c-2.767-1.102-1.401,0.126-5.723-1.164c3.746,1.604-15.554-0.067-9.537,1.619         c-4.434-1.497-7.674-0.635-13.469-1.911c0.179,0.368,2.053,0.704-3.052,0.522c-0.23,0.107-0.774,0.244-1.119,0.324         c-0.157-0.012-0.211-0.017-0.346-0.027c0.103,0.016,0.18,0.027,0.281,0.043c-0.221,0.055-0.24,0.066,0.105,0.015         c1.216,0.161,2.201,0.354,2.601,0.56c-2.533,0.845-10.651,0.819-13.396,1.256c-3.028-0.175,1.267-0.422-0.387-0.815         l-4.101,0.654c-0.406-0.818-8.047-1.358-0.911-1.837l-6.423-0.037c-3.78-0.458-8.981-0.641-12.189-0.297         c-3.029-0.177-7.65,0.905-5.012,0.265l-10.072,0.506l-0.093-0.205c-9.938-0.103-20.457,1.354-31.818-0.122         c-3.346,0.206-6.803,0.458-12.4,0.226l-1.091-0.707c-4.295,0.247-12.899-0.707-14.745,0.029         c-4.635-1.902-20.848-0.415-28.402-0.752l-0.285,0.923c-5.201-0.052-10.188,0.209-16.642,0.58l0.397,0.816         c-5.565,0.67-14.307-0.58-23.109-0.497c0.598-0.312,2.831-0.23,4.411-0.042c-5.258-0.921-10.805-0.586-16.23-0.188         c-2.712,0.199-5.394,0.413-7.994,0.494c-1.3,0.041-2.58,0.047-3.832,0.002c-0.626-0.023-1.246-0.058-1.857-0.109         c-0.131-0.016-0.34-0.022-0.556-0.026l-0.626-0.017c-0.421-0.023-0.828,0.01-1.239,0.027         c-1.581,0.407-2.86,0.875-3.977,1.382c-1.129,0.487-2.106,1.002-3.054,1.557c0.224-0.183,0.444-0.324,0.613-0.473         c-0.279,0.16-0.668,0.433-1.047,0.74c-1.173,0.734-2.336,1.617-3.403,2.811c0.965-0.973,2.003-1.717,2.864-2.381         c-0.906,0.791-1.964,1.892-2.881,3.296c-0.919,1.397-1.685,3.109-2.058,4.927c0,0-0.303,0.341-0.605,0.683         c-0.316,0.4-0.571,0.619-0.571,0.619c-0.029,0.219-0.053,0.396-0.084,0.625c-0.779,2.578,0.039,2.188,0.934,0.897         c-0.095,1.376-0.141,2.645-0.101,3.642c-1.767,1.896-0.761,7.124-2.758,9.785c0.409,1.935-1.813,13.589-0.539,15.286         c-0.214,0.057-0.447,0.831-0.206-0.62c-0.697,2.963-1.393,5.922-1.433,8.682l-1.319,1.078l0.333,6.792         c-1.363,3.854-2.039,5.43-2.195,1.341c-0.365,9.745-0.86,7.808-0.988,16.127l-0.641-0.518         c-0.478,2.896-0.336,7.688-1.228,9.331c-2.48,6.235-5.785,31.991-9.942,48.386c2.653-2.858-2.287,7.559-0.782,8.5         c-0.663,0.881-1.347,3.148-1.307,0.382c-0.997,8.563-3.011,12.602-2.668,18.694c-0.666,0.884-0.408-1.941-0.852-1.13         c-0.012,0.699-0.041,2.77-0.491,3.6c-0.445,0.813-0.197-1.313-0.179-2.693c-0.179,1.084-0.314,2.051-0.411,2.914         c-0.068,0.697-0.232,2.033-0.139,3.019c0.144,2.034,0.718,3.466,1.343,4.37c1.264,1.811,2.313,1.775,3.096,1.746         c1.324,2.56,3.389,3.887,5.239,4.429c0.945,0.249,1.871,0.353,2.778,0.269c0.981-0.067,1.591-0.287,2.431-0.516         c1.551,0.475,4.139,0.972-1.324,1.142c3.074,0.069,18.775,0.696,19.088-0.467c0.963,0.295,4.295,0.086,5.105-0.048         c6.896,0.069,7.503,0.174,14.274,0.063l-1.877-0.19c2.674-1.403,5.629-0.313,11.089-0.481l-0.157,0.145         c12.519,1.012,5.405-0.485,17.754,0.67l-0.671-0.873c1.151-1.877,10.942,1.107,18.11,0.39l-2.588-0.499         c3.915-0.643,10.942,2.554,14.873,2.788c0.857,0.163-1.353,0.262-2.549,0.383c10.293,1.107,1.334-1.144,9.004-1.409         c1.414,0.616-1.823,1.568,3.339,1.683c2.572,0.5,14.972-2.002,22.015-0.819c-1.551-0.476-3.093-0.949,0.47-1.307         c5.46-0.17,14.761,1.797,19.693,0.298c0.694,0.13,0.956,0.255,0.985,0.373c4.174-0.387,13.565-0.643,16.079-1.455         c3.857,3.016,25.949-1.466,25.856,1.314l12.839-0.148l-0.336,0.283c8.207,0.185,11.108-0.481,13.993-1.15         c1.896,0.189,0.512,0.449,0.355,0.596c11.991,0.561,13.184,0.442,23.236-0.942l1.046,0.901         c2.726-0.524,17.336,1.414,29.097,0.362c-0.115,0.103-0.358,0.277-1.292,0.404c13.231-1.059,31.678,2.503,36.526-0.782         c0,0,0.546-0.051,1.364-0.127c0.409-0.038,0.887-0.082,1.398-0.13c0.222-0.017,0.628-0.068,0.944-0.107         c0.338-0.034,0.68-0.091,1.021-0.179c1.363-0.286,2.671-0.856,3.546-1.441c0.885-0.566,1.393-1.048,1.393-1.049         c-1.444,1.09-2.728,1.457-3.6,1.655c-0.886,0.204-1.423,0.159-1.693,0.137c-0.542-0.076-0.056-0.334,0.608-0.639         c0.671-0.315,1.487-0.808,1.793-1.152c0.314-0.334,0.161-0.438-0.995-0.169c1.067-0.378,2.237-0.959,3.208-1.739         c0.981-0.767,1.73-1.717,2.221-2.459c0.513-0.735,0.757-1.269,0.896-1.185c0.086,0.062,0.112,0.779-0.614,2.21         c0,0-0.161,0.193-0.322,0.387c-0.157,0.193-0.35,0.358-0.35,0.358c-0.032,0.71,0.703,0.351,1.545-0.955         c0.817-1.286,1.486-3.607,1.202-5.893c-0.029-0.273-0.06-0.595-0.095-0.831l-0.106-0.689         c-0.069-0.459-0.139-0.912-0.205-1.352c-0.132-0.881-0.248-1.709-0.328-2.421c-0.16-1.424-0.176-2.381,0.124-2.356         c-3.91-21.883-6.707-43.389-10.22-63.913l-0.898,2.593l-1.176-7.169c-0.022-1.931,0.585-2.699,1.424,2.414         c0.274-2.814-2.118-8.452-2.43-8.547c-1.215-10.087,2.212,3.637,1.707,0.565l-0.825-4.145l0.011,0.965         c-1.125-3.28-1.746-3.48-2.753-9.626c-0.416-3.928,0.461-2.133,0.244-3.67c0.095-0.007,0.048-0.531-0.372-2.351l-1.463-9.033         l-0.406,3.785c-1.208-3.906-1.427-8.485-1.873-4.121c0.093-0.803,0.081-1.932-0.012-3.301         c-0.046-0.685-0.112-1.43-0.196-2.223c-0.044-0.396-0.09-0.806-0.137-1.227c-0.022-0.19-0.045-0.385-0.067-0.581l0.015-0.095         c0.069-0.513,0.011-1.094-0.084-1.658c-0.19-1.128-0.53-2.188-0.295-2.497c-0.891-0.646-1.012-1.415-1.087-2.382         c-0.174,0.274-1.313,0.619-1.314-0.226c2.454-0.12,0.78-1.684,2.394-2.648c-1.043,0.792-0.69-2.281-2.155-1.067         c0.074-0.719,0.892-0.199,1.366-0.817c-1.216-1.465-0.022-3.693-0.688-5.651c-0.32,0.023-0.744,0.445-1.289,0.096         l1.391-1.339c-0.224-0.37-1.884-0.048-0.916-0.965c-0.247,0.148-0.621,0.372-0.768,0.123         c0.847-4.212-2.667-7.837-0.479-12.346c-0.517,0.649-0.641,0.298-0.735-0.112c-0.1,0.295-0.78,0.131-1.198,0.258l0.894-1.884         c-1.239-0.098-0.395-1.783-1.559-1.76l0.297,0.495c-1.462-0.472-2.802,1.508-4.537,1.705c1.659,0.524-1.89,2.478,0.516,3.395         c-0.301,0.347-0.597-0.147-0.968,0.075c0.794,0.2,1.017,0.57,0.814,1.363l-0.196-0.051c0.541,2.035-0.03,3.048-0.108,5.455         l0.82-0.321c-0.026,0.52-0.274,0.671-0.446,0.941c1.388,0.348-0.173-1.414,1.339-1.141c-1.612,0.964,0.588,3.523-1.297,4.314         c0.124,0.77,0.944-0.397,1.066,0.372l-0.496,0.297l0.719,0.074c-0.025,0.522-0.645,0.893-1.092,0.99         c0.032-0.132-0.187-0.325-0.248-0.449c-0.512,0.762,0.535,1.803,0.37,2.063l0.199-0.795c0.863,2.008,0.612,4.688,2.047,6.523         l0.374-0.224c1.011,1.416-0.224,1.314,0.415,2.951l-0.105-0.045c0.458,0.27,0.738,0.688,0.774,1.16         c-0.544-0.346-0.771,0.966-1.389,0.495c1.089,1.536,0.77,0.72,2.453,1.566l-0.62,0.371c0.667,0.272,0.99,0.248,1.31,1.065         c-0.691-0.596-0.918,0.718-1.809,0.071c-0.571,1.017-0.089,1.612,0.288,2.103c0.188,0.245,0.351,0.464,0.342,0.696         c-0.004,0.115-0.051,0.234-0.159,0.361c-0.027,0.032-0.058,0.064-0.093,0.098l-0.056,0.05l-0.02,0.289         c-0.031,0.388-0.08,0.775-0.148,1.166c0.717,1.39,1.018,1.381,1.082,0.636c0.032-0.372,0.004-0.928-0.061-1.585         c-0.018-0.164-0.036-0.335-0.055-0.511l-0.016-0.132l0.004-0.02l0.006-0.04c0.007-0.054,0.01-0.109,0.01-0.164         c0-0.443-0.189-0.899,0.048-0.705c0.267-0.243,0.641-0.135,0.936,0.108c0.148,0.121,0.276,0.276,0.362,0.438         c0.021,0.04,0.04,0.081,0.056,0.122c0.055,0.28,0.109,0.558,0.162,0.828c0.107,0.586,0.196,1.146,0.261,1.651         c0.674,4.097-1.138,7.365,0.694,17.646c-0.17-1.025-0.321-1.07-0.491-2.093c0.203,3.933,1.953,7.432,2.017,12.288         c1.575,2.452,1.008,6.143,2.56,6.656l-1.977-9.379c1.306,5.285,3.843,10.011,4.578,18.964         c-0.406-0.637-1.241-3.192-1.767-4.957c0.032,2.65,1.146,4.913,1.182,7.66c-1.554-0.514-2.313-11.414-4.397-16.956         c-0.116,2.871,2.924,10.661,0.882,8.051c2.68,3.798,1.525,10.179,4.236,16.884l-0.932-0.311         c0.327,1.079,1.127,3.293,1.461,5.326l-1.745-3.481c1.927,5.476,1.077,11.018,2.535,16.337         c-2.007-11.321,0.58-2.722,0.364-7.619c3.58,13.771-0.821,8.424,2.32,23.992c-0.49-2.096-0.878-8.038,0.095-4.796         c0.345,3.008,0.706,6.997,0.579,8.902c1.987,10.332,0.597-1.744,1.891,2.576c-0.42,3.71,1.312,5.015,2.438,9.499         l-0.859,0.184c0.754,5.952,1.342,6.656,1.889,7.216c0.274,0.28,0.537,0.523,0.807,1.369c0.077,0.237,0.116,0.411,0.158,0.626         c0.055,0.22,0.085,0.474,0.077,0.764c0.01,0.579-0.078,1.331-0.477,2.134c0,0-0.021-0.82-0.277-1.546         c-0.099-0.36-0.292-0.713-0.405-0.957c-0.146-0.245-0.244-0.408-0.244-0.408s0.044,0.207,0.11,0.518         c0.013,0.151,0.033,0.329,0.062,0.521c0,0.187-0.001,0.385-0.001,0.583c-0.031,0.388-0.093,0.769-0.178,1.04         c-0.084,0.271-0.146,0.451-0.156,0.445c0,0-0.035-0.062-0.087-0.153c-0.061-0.095-0.147-0.219-0.232-0.333         c-0.173-0.232-0.356-0.427-0.356-0.427c-0.136,1.336-0.931,2.098-1.875,2.441c-0.5,0.161-1.021,0.23-1.713,0.2         c-1.117-0.053-2.361-0.11-3.86-0.181c1.395,0.619-0.784,1.594-6.093,1.621c-3.621-0.521,2.027-0.835-5.499-0.709         c1.699-0.55,3.561-1.239,6.836-0.43c0.335-0.287,1.676-0.552,2.021-0.834c-3.899-0.6-9.801-0.137-12.525-0.129         c1.049,0.032,2.303,0.08,2.945,0.205l-10.91,1.217c-1.717-0.33-0.354-0.595,0.995-0.854c-2.21,0.095-3.739,0.498-6.988,0.573         c0.841-0.714,0.64-1.45,5.238-1.786l-10.395,0.792c-0.694-0.311-5.335-0.853-3.985-1.115         c-5.764-0.42-14.138,1.385-21.778,0.831c-0.396,0.138-1.193,0.271-2.818,0.373c-7.18-0.161-13.542-1.037-22.053-0.059         l-4.83-1.279c-6.665,0.29,6.538,1.611-4.561,2.094c-7.859,0.408-2.934-1.091-5.69-1.447         c-3.908,0.645-10.702,1.957-17.921,0.915C290.011,424.063,291.886,424.252,294.118,424.157z M211.908,424.724         c1.593-0.184,4.769-0.752,5.933-0.234C216.027,425.495,214.623,425.014,211.908,424.724z M94.416,419.826         c0.196,0.975,0.098,2.329,0.586,3.924C94.349,422.771,94.053,421.321,94.416,419.826z M307.195,252.475         c-0.066,0.014-0.115,0.024-0.169,0.043C303.473,252.175,304.732,252.31,307.195,252.475z M314.574,252.856         c0.742-0.123,0.691-0.245,0.378-0.367c-0.515,0.222-2.172,0.237-4.059,0.175         C311.418,252.894,312.371,253.053,314.574,252.856z M404.154,320.258l0.021,1.454         C403.369,318.561,403.75,319.416,404.154,320.258z" style="fill:#202020;"/><path d="M101.106,425.637c0.451,0.148,0.576,0.313,0.681,0.478         C102.415,425.967,102.427,425.796,101.106,425.637z" style="fill:#202020;"/><path d="M345.245,423.695l0.25,0.011c0.138-0.053,0.211-0.106,0.253-0.158L345.245,423.695z" style="fill:#202020;"/><path d="M200.277,260.3c-1.52-0.126-2.367-0.287-2.93-0.453         C197.264,260.062,197.955,260.243,200.277,260.3z" style="fill:#202020;"/><path d="M353.676,251.364l-4.728,0.228c2.287-0.043,3.103,0.148,4.258,0.288         C353.101,251.675,352.198,251.378,353.676,251.364z" style="fill:#202020;"/><path d="M371.82,256.797c0.096-0.107,0.203-0.012,0.298-0.121l-0.025-0.408         C371.684,256.295,371.397,256.624,371.82,256.797z" style="fill:#202020;"/><path d="M358.052,254.281c0.374,0.739,3.339,0.488,6.649,0.352c-0.198,0.002-0.387,0.009-0.586,0         C365.091,253.598,361.563,253.94,358.052,254.281z" style="fill:#202020;"/><path d="M365.469,254.607c0.51-0.012,1.025-0.023,1.539-0.035h0.766l0.359,0.006l0.052,0.011         c0.014-0.104,0.01-0.161-0.008-0.187c-0.009-0.013-0.021-0.018-0.036-0.017c-0.089,0.005-0.194,0.011-0.313,0.019         C367.24,254.446,366.379,254.554,365.469,254.607z" style="fill:#202020;"/><path d="M323.934,252.366c1.57,0.19,0.984-0.944,1.874-0.644         C327.561,250.782,315.339,252.86,323.934,252.366z" style="fill:#202020;"/><polygon points="360.731,256.714 359.545,255.803 357.69,256.538        " style="fill:#202020;"/><path d="M334.591,256.045l5.29,0.252c-0.08-0.153,0.592-0.243,1.417-0.311         C338.039,255.956,334.466,255.775,334.591,256.045z" style="fill:#202020;"/><path d="M341.298,255.986c1.698,0.019,3.313-0.001,4.257-0.151         C344.637,255.845,342.66,255.875,341.298,255.986z" style="fill:#202020;"/><polygon points="353.5,256.988 351.936,256.798 348.2,256.731        " style="fill:#202020;"/><path d="M277.722,255.869l-5.773,0.261c-0.588,0.313,0.985,0.504,3.135,0.379         C276.465,256.292,278.607,256.171,277.722,255.869z" style="fill:#202020;"/><path d="M295.183,258.366c-1.562-0.189-1.667-0.393-2.546-0.692l-0.177,1.13L295.183,258.366z" style="fill:#202020;"/><path d="M278.346,258.63c-0.576,0.314-8.38,0.9-1.063,0.829         C277.869,259.148,283.651,258.888,278.346,258.63z" style="fill:#202020;"/><polygon points="191.35,257.2 192.818,257.186 192.607,255.333        " style="fill:#202020;"/><path d="M124.145,267.31c0.3-0.852,0.531-1.337,0.622-1.663c0.088-0.327,0.02-0.5-0.031-0.652         c-0.058-0.157-0.117-0.304,0.003-0.609c0.154-0.28,0.473-0.766,1.352-1.345c0.124-0.268,0.018-0.28-0.216-0.157         c-0.117,0.062-0.267,0.154-0.434,0.266c-0.153,0.126-0.322,0.267-0.492,0.407c-0.652,0.59-1.182,1.303-1.028,0.709         c-0.635,1.353-0.798,2.368-0.759,2.891c0.006,0.305,0.059,0.621,0.211,0.624c0.076,0.014,0.176-0.024,0.304-0.118         C123.803,267.586,123.967,267.363,124.145,267.31z" style="fill:#202020;"/><path d="M123.92,264.265c0.095-0.22,0.201-0.445,0.333-0.671c0.117-0.234,0.249-0.474,0.404-0.712         C124.132,263.617,123.993,264.016,123.92,264.265z" style="fill:#202020;"/><polygon points="395.881,267.461 396.157,266.792 395.611,267.288        " style="fill:#202020;"/><path d="M394.325,266.542l1.139-0.346l-1.116-0.177C394.423,266.146,394.569,266.393,394.325,266.542z         " style="fill:#202020;"/><path d="M199.687,422.344l-0.336,0.285c0.681,0.307,1.711,0.33,3.774,0.379L199.687,422.344z" style="fill:#202020;"/><polygon points="259.354,423.229 258.327,423.204 260.246,424.273        " style="fill:#202020;"/><path d="M309.433,421.866c-2.044-0.045-4.446,0.194-6.5,0.148         C307.389,421.821,309.985,423.198,309.433,421.866z" style="fill:#202020;"/></g></g></g></g><g><g><g><g><path d="M255.44,84.439c-0.256-0.073-0.165,0.692-0.203,0.828         C255.661,85.11,255.431,84.241,255.44,84.439z" style="fill:#202020;"/><polygon points="259.772,82.864 259.677,83.168 260.364,82.457        " style="fill:#202020;"/><path d="M263.801,83.253c-0.232-1.336-1.48,0.007-2.152-0.485l-0.093-0.304l-0.414,1.018         C262.021,83.361,263.229,82.804,263.801,83.253z" style="fill:#202020;"/><path d="M265.519,86.303c-0.051-0.516,0.512-0.375-0.456-0.217c0.038,0.06,0.047,0.094,0.068,0.137         C265.215,86.227,265.329,86.242,265.519,86.303z" style="fill:#202020;"/><path d="M265.131,86.223C264.72,86.208,265.335,86.677,265.131,86.223L265.131,86.223z" style="fill:#202020;"/><path d="M267.045,86.25l-0.607,0.35c0.062,0.314,0.519,0.464,0.308,0.647         C267.325,87.099,267.271,86.788,267.045,86.25z" style="fill:#202020;"/><path d="M267.72,85.407l-0.313,0.138C267.434,85.677,267.499,85.732,267.72,85.407z" style="fill:#202020;"/><path d="M266.747,85.836l0.659-0.292c-0.04-0.221,0.022-0.637-0.297,0.095         C267.225,85.269,267.043,85.612,266.747,85.836z" style="fill:#202020;"/><path d="M266.445,85.582c-0.254-0.333-0.622-0.58-0.006-0.925         C265.369,84.648,265.393,85.581,266.445,85.582z" style="fill:#202020;"/><path d="M264.171,81.946l-0.382-0.432l-0.418,0.385C263.58,81.708,264.147,82.353,264.171,81.946z" style="fill:#202020;"/><path d="M270.201,87.567c0.095-0.262-0.014-0.759,0.023-1.114l-0.459,0.219         C269.926,86.905,270.267,87.162,270.201,87.567z" style="fill:#202020;"/><path d="M270.225,86.454l0.693-0.327C270.403,85.951,270.258,86.148,270.225,86.454z" style="fill:#202020;"/><polygon points="268.078,84.005 266.91,84.81 268.273,84.026        " style="fill:#202020;"/><polygon points="272.394,88.124 271.911,88.652 272.729,87.88        " style="fill:#202020;"/><path d="M273.866,88.427c-0.383,0.442,0.077,0.954-0.263,1.196c0.411,0.018,0.87-0.325,1.29-0.631         C274.508,89.12,274.188,88.969,273.866,88.427z" style="fill:#202020;"/><path d="M275.574,88.574c-0.194,0.063-0.43,0.238-0.681,0.418         C275.099,88.924,275.32,88.798,275.574,88.574z" style="fill:#202020;"/><path d="M271.892,86.491c0.005,0.173-0.013,0.618,0.269,0.871l-0.039-0.807         C272.051,86.536,271.972,86.514,271.892,86.491z" style="fill:#202020;"/><path d="M272.119,86.53l0.002,0.026c0.248,0.072,0.417,0.134,0.487,0.166         C272.548,86.695,272.401,86.634,272.119,86.53z" style="fill:#202020;"/><path d="M271.834,86.475c0.021,0.006,0.037,0.011,0.058,0.017         C271.888,86.412,271.881,86.384,271.834,86.475z" style="fill:#202020;"/><path d="M269.53,84.99c0.437-0.344,1.283-0.627,0.702-1.442         C269.866,84.009,270.195,84.473,269.53,84.99z" style="fill:#202020;"/><path d="M271.775,85.463l-0.595-0.319c-0.034,0.203,0.012,0.521-0.21,0.691L271.775,85.463z" style="fill:#202020;"/><polygon points="272.146,85.296 271.775,85.463 271.995,85.582        " style="fill:#202020;"/><path d="M274.741,87.573c0.361-0.249,0.664-0.194,1.01-0.153c-0.309-0.246-0.653-0.428-1.003-0.526         C274.63,87.115,274.356,87.493,274.741,87.573z" style="fill:#202020;"/><path d="M273.489,86.994c0.022-0.008,0.051-0.019,0.071-0.026         C273.542,86.894,273.519,86.865,273.489,86.994z" style="fill:#202020;"/><path d="M278.953,88.51c-0.001-0.05-0.002-0.098-0.003-0.15c-0.02,0.042-0.037,0.079-0.058,0.122         L278.953,88.51z" style="fill:#202020;"/><path d="M274.729,86.739c-0.226-0.22-0.439-0.083-0.656,0.105c0.221-0.019,0.446-0.008,0.675,0.051         C274.802,86.794,274.826,86.726,274.729,86.739z" style="fill:#202020;"/><path d="M276.566,88.527c-0.084-0.2-0.194-0.383-0.317-0.559         C276.307,88.248,276.456,88.704,276.566,88.527z" style="fill:#202020;"/><path d="M273.593,87.2c-0.017,0.008-0.032,0.019-0.049,0.022         C273.586,87.408,273.598,87.326,273.593,87.2z" style="fill:#202020;"/><path d="M273.593,87.2c0.166-0.069,0.325-0.224,0.48-0.356c-0.179,0.013-0.352,0.05-0.513,0.124         C273.579,87.03,273.59,87.12,273.593,87.2z" style="fill:#202020;"/><path d="M281.693,84.225c-0.314,0.661-1.248,0.978-1.617,0.044c-0.806,0.297-1.178,2.675-1.126,4.091         c0.128-0.29,0.225-0.566,0.975-0.726c-0.062-0.466-1.04-1.363-0.297-1.793c0.953-0.053,0.583,0.496,0.843,1.001         c-0.021-0.974,1.506-0.811,1.817-2.108l-0.901,0.144C281.445,84.681,281.83,84.48,281.693,84.225z" style="fill:#202020;"/><path d="M277.824,87.902l-0.277,0c0.242,0.215,0.352,0.556,0.531,1.212         c0.525-0.194,0.704-0.417,0.814-0.632l-1.188-0.507L277.824,87.902z" style="fill:#202020;"/><path d="M276.431,87.528c0.432-0.682,1.147-0.792,1.04-1.724c-0.767-0.202-0.727,0.445-1.271,0.62         c1.25,0.219-0.471,0.301,0.25,1.015c-0.272,0.049-0.492,0.017-0.698-0.019c0.184,0.163,0.352,0.345,0.498,0.548         c-0.005-0.022-0.008-0.037-0.012-0.055h-0.007l0.005-0.011c-0.021-0.11-0.019-0.173,0.021-0.099         c0.007-0.008,0.022-0.007,0.029-0.007c0.042-0.102,0.093-0.185,0.144-0.264c0.291,0.27-0.009,0.212-0.144,0.264         c-0.016,0.035-0.036,0.067-0.05,0.106l0.002,0.011l1.31-0.011C277.332,87.715,277.012,87.63,276.431,87.528z" style="fill:#202020;"/><path d="M271.269,82.056c0.024,0.077,0.011,0.131,0.001,0.187         C271.373,82.169,271.42,82.112,271.269,82.056z" style="fill:#202020;"/><path d="M271.688,82.639c-0.117,0.085-0.264,0.374-0.545,0.226c-0.209-0.29,0.083-0.367,0.126-0.622         c-0.229,0.161-0.754,0.404-0.272,0.906l0.113-0.083c0.453,0.381,0.87,1.481,0.755,1.565         C271.885,83.912,271.873,83.392,271.688,82.639z" style="fill:#202020;"/><path d="M274.233,84.863l1.133-0.078l-0.339-0.802l-0.085,0.4         C274.397,84.062,274.39,84.581,274.233,84.863z" style="fill:#202020;"/><polygon points="278.929,88.919 278.518,89.648 279.475,88.769        " style="fill:#202020;"/><polygon points="280.207,89.318 279.899,89.972 280.385,89.695        " style="fill:#202020;"/><path d="M197.469,205.1l-0.893-0.718C196.974,204.745,197.25,204.958,197.469,205.1z" style="fill:#202020;"/><path d="M203.195,210.92l0.389-0.132C203.167,210.687,202.953,210.69,203.195,210.92z" style="fill:#202020;"/><path d="M319.558,177.601c-1.167,1.122-2.702,2.19-1.911,2.341l0.902-0.099         C318.789,178.844,319.154,178.157,319.558,177.601z" style="fill:#202020;"/><path d="M264.613,226.141c0.157,0.059,0.321,0.12,0.483,0.181c0.336-0.316,0.65-0.613,0.935-0.88         C265.604,225.652,265.12,225.891,264.613,226.141z" style="fill:#202020;"/><path d="M263.889,229.526c0,0-0.545-0.047-1.089-0.132c-0.543-0.086-1.085-0.172-1.085-0.172         C262.206,229.354,262.908,229.504,263.889,229.526z" style="fill:#202020;"/><path d="M177.74,165.492c0,0-0.259-0.296-0.495-0.599c-0.242-0.304-0.483-0.608-0.483-0.608         C177.032,166.371,177.344,165.385,177.74,165.492z" style="fill:#202020;"/><path d="M313.7,116.715c0.442,1.21,0.773,2.167,1.192,2.936         C314.549,118.118,314.491,116.694,313.7,116.715z" style="fill:#202020;"/><path d="M205.669,201.593c-0.528-0.346-0.827-0.427-0.942-0.293         C205.266,201.669,205.621,201.824,205.669,201.593z" style="fill:#202020;"/><path d="M316.591,122.84c-0.029-0.231-0.093-0.442-0.136-0.673c-0.539-0.755-1.03-1.533-1.563-2.516         C315.18,120.771,315.536,122,316.591,122.84z" style="fill:#202020;"/><path d="M236.926,77.686c0.043,0.026,0.089,0.033,0.131,0.067         C237.042,77.646,236.993,77.652,236.926,77.686z" style="fill:#202020;"/><path d="M251.498,83.568c-0.124,0.059-0.33,0.075-0.523,0.101         C251.073,83.715,251.23,83.698,251.498,83.568z" style="fill:#202020;"/><path d="M294.478,97.365C293.688,96.867,294.307,97.351,294.478,97.365L294.478,97.365z" style="fill:#202020;"/><path d="M292.319,92.2c0.22,0.036,0.412,0.025,0.528-0.117C292.68,92.201,292.503,92.231,292.319,92.2         z" style="fill:#202020;"/><path d="M324.803,129.855c0.009,0.028,0.016,0.051,0.025,0.083         C324.879,129.606,324.867,129.665,324.803,129.855z" style="fill:#202020;"/><path d="M293.531,96.259c0.24,0.273,0.519,0.583,0.846,0.882         C294.253,96.981,294.006,96.7,293.531,96.259z" style="fill:#202020;"/><path d="M293.48,96.672c-0.247-0.207-0.452-0.356-0.643-0.505         C292.666,96.215,292.71,96.336,293.48,96.672z" style="fill:#202020;"/><path d="M295.561,98.083c-0.442-0.299-0.826-0.618-1.184-0.942c0.118,0.15,0.155,0.231,0.101,0.224         C294.705,97.516,295.026,97.729,295.561,98.083z" style="fill:#202020;"/><path d="M203.151,98.415c0.066-0.029,0.134-0.072,0.21-0.099         C203.892,97.359,203.596,97.713,203.151,98.415z" style="fill:#202020;"/><path d="M313.266,203.806c0.026-0.042,0.027-0.076,0.05-0.116c-0.039,0.031-0.088,0.071-0.123,0.099         L313.266,203.806z" style="fill:#202020;"/><path d="M311.146,206.993c0.411-1.839,1.104-2.408,2.046-3.204c0,0-0.63-0.142-1.26-0.285         c-0.624-0.149-1.248-0.298-1.248-0.298s0.036,0.236,0.091,0.591c0.044,0.352,0.104,0.821,0.162,1.29         C311.042,206.04,311.146,206.993,311.146,206.993z" style="fill:#202020;"/><path d="M186.169,189.167c0,0,0.15,0.68,0.3,1.36c0.179,0.671,0.359,1.342,0.359,1.342         c-1.349-1.114-2.114-2.326-2.594-2.853c-0.465-0.535-0.582-0.437-0.436,0.944c0.595-0.195,1.207,0.292,1.831,1.108         c0.662,0.797,1.346,1.924,2.032,3.05c0.727,1.101,1.473,2.19,2.165,2.942c0.711,0.739,1.398,1.114,1.951,0.836l0.602,1.742         c-0.275-0.427-0.439-0.408-0.711-0.831c0.508,1.765,1.294,1.996,2.193,2.255c0.921,0.25,1.913,0.565,3.223,2.308         c0.85,1.271,1.289,2.322,0.385,1.729c0,0,0.169,0.135,0.422,0.338c0.263,0.193,0.613,0.45,0.964,0.708         c0.697,0.51,1.395,1.02,1.395,1.02c0.648,0.749,0.179,0.878-0.472,0.129c0,0,0.234,0.227,0.584,0.567         c0.352,0.338,0.85,0.76,1.334,1.194c0.487,0.431,0.975,0.861,1.341,1.184c0.36,0.328,0.623,0.521,0.623,0.521l-0.077,0.029         c0.822,0.2,2.473,0.837,3.243,1.167c0.792,1.089-0.674-0.21-0.606,0.229c0,0,0.16,0.086,0.399,0.216         c0.245,0.122,0.572,0.284,0.899,0.445c0.65,0.321,1.301,0.642,1.301,0.642c0.535,1.216-1.739,0.28-3.209-1.075         c0.227,1.828,0.846,2.061,1.791,2.46c0.951,0.414,2.29,0.88,4.275,3.152l-2.424-1.332c0.316,1.077,0.989,1.856,1.869,2.634         c0.9,0.752,1.952,1.582,3.097,2.767c-0.225-0.365-1.267-1.708-1.862-2.762c-0.596-1.061-0.74-1.855,0.743-1.269         c0.647,0.614,1.556,1.381,3.283,1.768c-0.42,0.742,1.088,1.459,2.963,2.34l-0.667,0.966c2.182,0.724,2.261,0.153,3.688,0.216         c2.214,1.123,2.328,2.183,2.6,3.093c3.696,1.658-2.033-2.356,2.466-0.817c2.941,1.601,5.365,1.88,9.336,2.181         c2.153,0.91-0.562,0.602,0.166,1.112l2.207-0.444c0.482,0.134,0.267,0.377,0.158,0.499c1.761-0.014,0.378-1.103,3.063-0.936         c0.231-0.285,0.661-0.252,1.233-0.056c0.575,0.181,1.301,0.494,2.115,0.826c1.619,0.698,3.645,1.232,5.343,0.639         c0.801,0.389-0.434,0.684-0.209,1.151c4.632-0.79,3.985-0.548,7.665-1.931c0,0,0.795,0.176,1.596,0.292         c0.806,0.13,1.611,0.261,1.611,0.261c-1.202-0.347-1.063-0.835-0.337-1.366c0.363-0.266,0.874-0.541,1.444-0.815         c0.566-0.304,1.192-0.609,1.791-0.899c-0.847-0.319-1.556-0.597-2.023-0.722c0,0,0.966-0.278,1.932-0.557         c0.479-0.14,0.958-0.279,1.317-0.384c0.359-0.099,0.595-0.187,0.595-0.187c0.496,0.098,0.177,0.585-0.402,1.15         c0.258-0.125,0.496-0.266,0.68-0.389c1.471,0.175,0.87,0.964-0.063,1.791c-0.526-0.156-1.049-0.343-1.552-0.522         c-0.894,0.826-1.757,1.725-1.472,2.375c0.253-0.167,0.755-0.347,1.312-0.483c-0.241,0.225-0.391,0.416-0.253,0.516         c0.155,0.104,0.557-0.206,1.188-0.586l1.131,1.161l0.149-0.55c0,0,1.387-0.042,2.773-0.083         c0.699-0.009,1.392-0.07,1.913-0.114c0.521-0.042,0.87-0.07,0.87-0.07c3.561-2.212,6.241-4.881,11.513-7.706         c-0.997,1.461,0.309,1.563,0.683,2.634c-1.018-0.236-2.069,0.313-3.275,1.052c-1.217,0.692-2.604,1.563-4.184,1.92         c1.646-0.369,1.454,0.223,1.103,0.552c0,0,1.285-0.721,2.571-1.443c0.643-0.345,1.252-0.769,1.72-1.051         c0.463-0.292,0.772-0.487,0.772-0.487c0.218,0.893,1.41,0.225,2.935-0.076c-0.888-0.599-0.03-1.318,1.267-2.066         c1.276-0.791,3.003-1.646,3.875-2.458c0.426,0.466,0.251,1.313-2.376,2.471c1.711-0.117,2.407-1.032,2.991-2.041         c0.595-1.007,1.167-1.954,2.758-2.278c-0.569,0.391-0.94,0.493-1.019,0.894c1.107-1.276,4.611-3.087,4.143-2.146         c0,0-0.14,0.103-0.279,0.206c-0.144,0.097-0.287,0.194-0.287,0.194c0.984-0.603,2.185-1.431,3.429-2.348         c1.195-0.98,2.493-1.979,3.54-3.077c2.181-2.103,3.617-4.237,3.333-4.991c0.176,0.108,0.881,1.738,0.892,2.16         c0,0,0.157-0.587,0.354-1.477c0.187-0.902,0.421-2.092,0.635-3.259c0.222-1.162,0.349-2.367,0.468-3.231         c0.105-0.867,0.175-1.444,0.175-1.444c0.285,0.683,1.474,1.038,2.362,1.603c0.892,0.573,1.496,1.39,0.511,3.094         c0.434-0.357,0.919-0.761,1.442-1.335c0.496-0.596,1.024-1.368,1.56-2.43c-0.623,0.488-2.663,0.278-2.136-0.59         c1.443-0.628,1.901-0.904,2.359-1.269c0.467-0.365,0.959-0.799,2.484-1.873c-0.875,0.768-1.872-1.432-0.906-2.853         c0.115,0.399,1.815,0.981,1.645,1.649c0,0,0.163-1.204,0.326-2.408c0.104-1.206,0.207-2.411,0.207-2.411         c-0.221,1.123,1.403,1.04,2.411,0.446c-0.542,0.233,1.853-3.391,2.155-4.572c0,0-0.29,0.386-0.615,0.751         c-0.321,0.367-0.642,0.733-0.642,0.733c2.461-4.41-0.499-5.615,1.238-10.035c0.219,0.676,1.979,2.269,3.036-0.048         c-0.16-0.353-0.421-0.93-0.751-1.66c-0.337-0.728-0.743-1.606-1.111-2.552c-0.708-1.89-1.462-4.076-1.433-6.134l0.726-0.657         c0,0-0.03-0.802-0.061-1.603c-0.014-0.795-0.103-1.594-0.103-1.594c0.342,0.538,0.728,1.311,1.115,2.236         c0.386,0.924,0.839,2.012,1.193,3.142c0.35,1.128,0.677,2.313,0.946,3.44c0.231,1.117,0.393,2.171,0.482,3.041         c0.959-1.685,0.853-0.304,1.517-3.067c0.387-0.422,0.506,0.005,0.508,0.648c-0.017,0.638-0.18,1.483-0.277,1.896         c0,0,0.137-0.397,0.34-0.992c0.22-0.592,0.442-1.4,0.676-2.207c0.232-0.809,0.465-1.617,0.64-2.224         c0.146-0.613,0.243-1.022,0.243-1.022c-0.628,0.03-0.703-1.284-0.76-2.579c-0.069-1.299-0.196-2.593-0.708-2.531         c0,0,0.022,0.451,0.057,1.127c0.05,0.681,0.041,1.581,0.04,2.489c-0.006,0.907,0.008,1.824-0.019,2.508         c-0.035,0.684-0.059,1.139-0.059,1.139c-0.649,0.004-1.193-1.187-1.611-2.913c-0.2-0.863-0.314-1.852-0.349-2.901         c-0.067-1.056-0.026-2.168,0.169-3.281c0.624-1.101,2.06,1.089,2.473,1.056c-0.28-0.652-0.426-4.458-0.083-4.862l0.504,2.011         c0.332-1.281,0.014-2.37-0.295-3.498c-0.307-1.133-0.442-2.297,0.073-3.855c0.052-1.058,1.5-3.283,0.729-3.435         c-1.28,1.862-5.639,2.275-6.698,1.254c0.058-0.177,0.274-1.487,0.579-2.933c0.328-1.446,0.542-3.015,0.833-3.643         c0.867-1.855,2.91,2.21,3.66,0.651c-0.34-0.025-0.87-0.93-1.053-1.307c0.118-1.141,1.138,0.306,0.572-2.073         c-1.293-0.19-0.765-4.868-1.233-0.946c-0.739-2.248-0.261-2.495-0.913-5.192c-0.283,0.527-1.089,0.085-1.977-0.711         c-0.891-0.799-1.769-1.973-2.328-2.98c0.343,0.029,0.57-0.583,0.667-0.881c-1.434-4.458-1.915-7.033-3.942-10.966         c0.107-0.511-0.638-2.558,0.278-2.018c-0.515-0.455-1.174-0.757-1.883-1.931c-0.44-2.856,1.694,2.577,1.774,0.166         c-0.683,0.186-2.7-2.579-4.181-3.932c-0.567,1.111,2.289,3.855,3.621,5.383c-0.667,0.38-1.774,0.031-3.053-0.823         c-1.345-0.816-2.817-2.166-4.423-3.738c-1.16-1.329-1.225-1.755-1.018-1.937c0.201-0.177,0.647-0.078,0.37-0.254         c-1.931-2.741-3.447-3.329-4.673-3.914c-0.633-0.278-1.238-0.523-1.853-1.004c-0.614-0.483-1.246-1.189-2.051-2.31         c-0.896-2.207,1.265-1.485,1.403-2.328c1.199,0.874,1.905,1.774,2.444,2.653c0.545,0.875,1.011,1.647,1.656,2.396         c0,0-0.077-0.134-0.194-0.336c-0.115-0.204-0.274-0.471-0.446-0.728c-0.337-0.522-0.675-1.043-0.675-1.043         c0.436,0.23,1.057,0.645,1.599,1.157c0.537,0.518,1.029,1.1,1.272,1.598c-0.146-0.492-0.663-1.31-1.456-2.283         c-0.83-0.938-1.832-2.129-3.045-3.259c-2.326-2.371-5.232-4.716-7.107-6.642c-0.968-0.285-2.476-0.941-2.079-0.177         l1.432,0.851c0.758,1.507-3.16-0.908-1.684,0.594c-1.049-0.388-2.168-0.802-3.378-1.249         c-0.592-0.239-1.182-0.525-1.776-0.864c-0.609-0.317-1.215-0.699-1.817-1.174l0.048-1.26         c-0.097,0.321,1.405,1.575,2.326,1.712c-0.681-0.107-1.502-1.013-2.417-1.836c-0.918-0.809-1.966-1.461-2.91-1.135         l1.55,1.662c-2.196-0.519-5.038-0.597-7.339-1.885c0.686,1.461,0.637,0.083,1.807,2.033         c-0.411-1.056,1.119-0.378,2.516,0.305c1.376,0.714,2.66,1.365,1.89,0.025c0.521,1.089,1.157,1.632,1.868,2.202         c0.709,0.563,1.518,1.116,2.202,2.34c0.134-0.352-0.363-1.068,1.378,0.262c0.143-0.037,0.414-0.024,0.584-0.011         c0.05,0.046,0.067,0.063,0.109,0.103c-0.027-0.037-0.05-0.065-0.077-0.101c0.11,0.005,0.124,0-0.03-0.037         c-0.351-0.415-0.603-0.807-0.638-1.073c0.694-0.065,1.79,0.392,2.826,0.967c1.056,0.55,2.083,1.168,2.682,1.385         c0.94,0.962-0.696-0.01-0.366,0.75l1.821,0.598c-0.348,0.736,1.766,3.317-0.856,1.666l2.058,1.831         c0.889,1.438,2.365,3.066,3.533,3.843c0.379,0.531,1.115,0.958,1.587,1.229c0.463,0.278,0.685,0.366,0.076,0.151         c0,0,0.803,0.733,1.605,1.467c0.409,0.363,0.805,0.74,1.086,1.036c0.288,0.291,0.48,0.484,0.48,0.484l-0.135,0.158         c0.643,0.854,1.375,1.658,2.078,2.513c0.724,0.84,1.485,1.681,2.155,2.613c0.696,0.914,1.358,1.88,1.867,2.957         c0.265,0.532,0.507,1.083,0.719,1.653c0.185,0.585,0.338,1.19,0.452,1.816c0.859,1.171,1.703,2.436,2.447,4.74l-0.482,0.704         c0.955,1.612,1.223,5.377,2.127,5.911c-0.321,0.613-0.358,1.45-0.223,2.41c0.142,0.959,0.351,2.072,0.673,3.201         c0.313,1.131,0.571,2.317,0.846,3.406c0.251,1.093,0.372,2.115,0.401,2.914l0.933,0.015c0.192,2.215,0.609,4.315,1.02,7.099         l0.812-0.182c0.397,1.211,0.144,2.788-0.098,4.513c-0.357,1.723-0.748,3.593-0.989,5.483c-0.277-0.298-0.074-1.24,0.2-1.9         c-0.605,1.081-0.889,2.207-1.027,3.369c-0.192,1.151-0.205,2.344-0.233,3.535c-0.074,1.179-0.112,2.367-0.308,3.484         c-0.232,1.107-0.581,2.153-1.186,3.045c-0.048,1.063-0.385,1.746-0.81,2.36c0.029-0.091,0.042-0.178,0.042-0.255         c-0.044,0.096-0.095,0.244-0.146,0.396c-0.269,0.386-0.582,0.768-0.896,1.187c0.345-0.327,0.649-0.653,0.827-0.97         c-0.229,0.759-0.609,1.899-0.844,3.083l-0.992,0.13c-0.028,0.091-0.051,0.165-0.081,0.259         c-0.77,0.914-0.003,1.012,0.859,0.707c-0.115,0.602-0.184,1.173-0.167,1.651c-1.633,0.273-0.944,3.041-2.873,3.497         c0.159,0.536-0.487,1.88-1.01,3.289c-0.561,1.385-1.087,2.79-0.611,3.498c-0.189-0.076-0.462,0.17-0.12-0.387         c-0.869,1.046-1.831,2-2.167,3.255l-1.232-0.212l-0.637,3.234c-1.694,0.942-2.461,1.206-1.971-0.663         c-0.874,2.018-1.351,2.771-1.813,3.406c-0.468,0.64-0.813,1.271-1.681,3l-0.375-0.637c-0.459,0.457-0.897,1.218-1.35,1.885         c-0.451,0.667-0.956,1.189-1.443,1.229c-1.532,0.462-4.311,2.699-7.768,4.978c-3.445,2.278-7.641,4.505-11.282,5.341         c1.07,0.663,0.208,0.846-0.912,0.954c-1.116,0.119-2.427,0.253-2.278,1.079c-0.577-0.307-1.639-0.268-0.666-1.05         c-1.683,0.811-3.059,1.127-4.294,1.351c-1.23,0.256-2.269,0.603-3.373,1.542c-0.53-0.395,0.605-0.895,0.166-1.099         c-0.262,0.171-1.048,0.689-1.487,0.484c-0.43-0.208,0.437-0.534,0.951-0.877c-1.807,0.486-2.744,1.057-3.24,1.726         c-0.492,0.676-0.534,1.445-0.554,2.185c-2.062-0.321-2.999-0.185-4.323,0.969c-0.745-0.412-1.913-0.779,0.459-1.21         c-0.673,0.087-2.751,0.04-4.652,0.156c-1.909,0.019-3.664,0.225-3.739,0.773c-0.424-0.307-1.898-0.135-2.265-0.01         c-1.529-0.045-2.351-0.229-3.172-0.289c-0.821-0.075-1.635-0.134-3.127-0.288l0.804,0.294         c-1.349,1.231-2.547,0.04-4.958-0.257l0.095-0.129c-1.333-0.474-2.128-0.775-2.681-0.924         c-0.552-0.148-0.854-0.16-1.155-0.176c-0.599-0.018-1.204-0.083-3.668-1.395l0.037,0.917         c-0.519,0.848-1.632,0.208-2.974-0.707c-1.365-0.867-2.877-2.138-4.497-2.39c0,0,0.212,0.235,0.436,0.452         c0.222,0.221,0.443,0.443,0.443,0.443c-0.949-0.001-1.818-1.127-2.605-2.297c-0.802-1.152-1.449-2.502-2.151-2.979         c-0.252-0.313,0.639,0.033,1.149,0.158c-1.706-1.496-1.959-1.3-2.181-0.907c-0.222,0.4-0.396,1.025-1.917,0.303         c-0.221-0.838,1.456-0.973-0.398-2.169c-0.342-0.493-1.945-0.918-3.725-1.604c-0.872-0.366-1.79-0.791-2.603-1.293         c-0.786-0.537-1.462-1.156-1.876-1.854c0.227,0.782,0.474,1.579-0.983,0.889c-0.991-0.688-1.927-2.102-2.905-3.367         c-0.953-1.301-1.989-2.424-3.252-2.707c-0.116-0.31-0.105-0.479-0.028-0.569c-1.587-1.001-4.406-4.015-5.718-4.419         c0.33-0.801-0.025-1.687-0.633-2.659c-0.631-0.955-1.58-1.958-2.438-2.978c-0.436-0.504-0.883-0.989-1.255-1.466         c-0.362-0.482-0.678-0.938-0.904-1.349c-0.453-0.823-0.542-1.461,0.074-1.783c0,0-0.674-1.23-1.347-2.46         c-0.352-0.609-0.635-1.251-0.87-1.723c-0.229-0.474-0.383-0.79-0.383-0.79l0.32,0.018c-0.684-1.653-1.168-2.757-1.739-3.528         c-0.566-0.773-1.063-1.27-1.587-1.765c-0.09-0.856,0.353-0.358,0.512-0.342c-1.096-5.188-1.264-5.583-3.516-9.689         l0.806-0.617c-0.182-0.271-0.27-0.895-0.33-1.747c0-0.855-0.001-1.94-0.001-3.147c0.01-1.203,0.07-2.525-0.018-3.856         c-0.014-1.336-0.134-2.688-0.407-3.976c0.104,0.051,0.263,0.158,0.406,0.563c-0.507-2.889,0.254-6.35,1.03-9.23         c0.329-1.456,0.697-2.774,0.751-3.912c0.034-1.142-0.121-2.083-0.807-2.787c0,0,0.019-0.985,0.039-1.971         c0.067-0.984,0.135-1.969,0.135-1.969c-0.818,2.378-1.077,2.13-1.333,1.481c-0.227-0.638-0.38-1.668-0.934-0.719         c0.185-1.002,0.781-2.201,1.265-2.825c0.524-0.614,0.881-0.68,0.596,0.516l-0.262,0.322c0.349,0.34,0.667,0.14,0.963-0.335         c0.315-0.47,0.634-1.21,0.937-1.98c0.572-1.551,1.294-3.144,1.792-2.871c1.767-4.56,4.225-8.764,7.024-12.568         c2.802-3.812,5.939-7.229,9.149-10.405l-1.676-0.17c0,0,0.555-0.582,1.148-1.124c0.594-0.54,1.189-1.08,1.189-1.08         c0.823-0.357,1.52-0.01-0.15,1.505c0.694-0.139,1.262-0.899,1.652-1.67c0.403-0.754,0.645-1.5,0.571-1.633         c3.713-2.503-0.293,2.308,0.765,1.432l1.315-1.271l-0.412,0.151c0.759-1.401,0.548-1.89,2.731-3.545         c1.57-0.788,1.206,0.15,1.787-0.199c0.052,0.079,0.262-0.016,0.864-0.568c0,0,0.206-0.138,0.516-0.345         c0.318-0.193,0.743-0.451,1.167-0.708c0.85-0.512,1.7-1.023,1.7-1.023l-1.902-0.028c1.206-1.433,3.286-1.909,1.041-2.005         c0.419,0.024,0.942-0.066,1.539-0.242c0.298-0.088,0.615-0.198,0.947-0.326c0.165-0.066,0.334-0.135,0.508-0.205         c0.079-0.032,0.191-0.085,0.244-0.101l0.093-0.013c0.498-0.078,1.015-0.294,1.505-0.542c0.976-0.502,1.86-1.111,2.22-0.943         c0.365-1.006,1.066-1.308,1.952-1.607c-0.296-0.104-0.899-1.137-0.089-1.331c0.668,2.356,1.792,0.432,3.024,1.832         c-0.958-0.887,2.002-1.078,0.592-2.31c0.705-0.03,0.351,0.845,1.021,1.224c0.589-0.697,1.472-0.834,2.406-0.907         c0.947-0.042,1.951,0.007,2.838-0.416c-0.052-0.317-0.497-0.7-0.215-1.275c0,0,0.351,0.316,0.702,0.632         c0.348,0.328,0.695,0.655,0.695,0.655c0.33-0.236-0.095-1.874,0.852-0.952c-0.158-0.24-0.398-0.601-0.167-0.759         c2.044,0.292,3.89-0.338,5.82-0.809c0.967-0.196,1.947-0.353,2.942-0.308c0.997,0.068,2.012,0.385,3.014,1.037         c-0.56-0.58-0.219-0.667,0.18-0.721c-0.269-0.128-0.042-0.79-0.12-1.219c0,0,0.426,0.272,0.852,0.543         c0.42,0.291,0.84,0.582,0.84,0.582c0.256-1.21,1.739-0.125,1.894-1.281l-0.519,0.221c0.687-1.376-1.047-2.994-1.012-4.739         c-0.389,0.783-0.944,0.224-1.584-0.247c-0.634-0.442-1.358-0.794-1.954,0.36c-0.328-0.332,0.213-0.58,0.022-0.971         c-0.292,0.772-0.688,0.958-1.492,0.684l0.07-0.191c-1.079,0.176-1.86,0.173-2.7,0.043c-0.838-0.114-1.732-0.334-2.994-0.339         l0.323,0.818c-0.539-0.021-0.695-0.268-0.979-0.437c-0.368,1.394,1.478-0.188,1.172,1.33c-0.99-1.615-3.633,0.62-4.51-1.177         c-0.804,0.175,0.452,0.92-0.346,1.092l-0.333-0.477l-0.042,0.723c-0.544,0.008-0.97-0.586-1.101-1.024         c0.141,0.023,0.333-0.208,0.461-0.278c-0.845-0.476-1.874,0.687-2.152,0.562l0.849,0.105         c-1.017,0.551-2.226,0.837-3.406,1.204c-1.163,0.416-2.299,0.903-3.129,1.764l0.292,0.331         c-1.263,1.27-1.376,0.051-2.924,1.027l0.024-0.113c-0.179,0.513-0.55,0.857-1.01,1.02c0.228-0.625-1.144-0.5-0.81-1.229         c-1.302,1.474-0.557,0.948-0.984,2.8l-0.528-0.501c-0.097,0.724-0.002,0.999-0.705,1.559         c0.392-0.851-0.958-0.665-0.564-1.726c-1.165-0.234-1.632,0.424-2.006,0.938c-0.188,0.258-0.356,0.481-0.589,0.546         c-0.117,0.033-0.25,0.025-0.41-0.037c-0.04-0.015-0.082-0.034-0.125-0.057l-0.067-0.037l-0.15,0.005         c-0.204,0.005-0.415-0.006-0.636-0.035c-0.396,0.766-0.263,1.033,0.128,1.029c0.351,0.02,1.229-0.393,1.265-0.354         c0.438-0.139,0.831-0.461,0.71-0.175c0.321,0.178,0.325,0.568,0.179,0.923c-0.073,0.178-0.185,0.347-0.315,0.478         c-0.032,0.033-0.066,0.063-0.101,0.09c-0.115,0.072-0.228,0.143-0.338,0.212c-0.239,0.142-0.471,0.267-0.688,0.364         c-1.669,0.929-4.129-0.473-8.238,2.47c0.412-0.283,0.358-0.417,0.769-0.699c-0.9,0.354-1.573,1.007-2.274,1.692         c-0.692,0.701-1.438,1.397-2.59,1.812c-0.266,1.692-2.313,1.908-1.639,3.223c0,0,0.803-0.806,1.606-1.611         c0.397-0.41,0.812-0.801,1.132-1.083c0.316-0.288,0.526-0.48,0.526-0.48c-0.915,0.927-1.518,2.15-2.361,3.367         c-0.431,0.6-0.9,1.224-1.473,1.854c-0.574,0.629-1.301,1.211-2.171,1.821c0.002-0.454,0.651-1.577,1.129-2.333         c-0.595,0.273-0.979,0.737-1.366,1.202c-0.378,0.475-0.74,0.966-1.343,1.278c-0.812-1.308,3.663-4.161,5.12-6.746         c-0.71,0.211-1.549,1.283-2.193,2.03c-0.614,0.78-1.06,1.236-1.081,0.178c-0.049,1.442-1.016,2.198-2.067,3.146         c-1.057,0.932-2.313,1.957-2.828,3.755l-0.505-0.736c-0.244,0.508-0.693,1.589-1.313,2.357c0,0,0.049-0.537,0.134-1.053         c0.082-0.523,0.164-1.045,0.164-1.045c-1.064,2.707-4.033,3.677-5.163,6.207c3.245-4.588,1.557-0.436,3.463-1.943         c-1.541,3.075-2.537,3.542-3.669,4.108c-1.135,0.551-2.469,1.158-4.202,4.662c0.421-0.982,2.417-3.163,1.944-1.54         c-0.442,0.59-0.978,1.266-1.509,1.868c-0.5,0.619-1,1.164-1.41,1.466c-2.161,4.676,1.139-0.312,0.635,1.875         c-1.69,1.11-0.679,2.449-1.229,4.589l-0.817-0.322c-1.323,2.591-1.045,3.111-0.717,3.555         c0.317,0.446,0.646,0.803-0.497,3.125l-0.456-2.454c0,0-0.143,0.668-0.286,1.337c-0.146,0.666-0.271,1.335-0.272,1.335         l-0.785-0.833c-0.132,3.077-0.585,3.876-1.492,6.665c0.785-0.516,1.4,0.704,1.016,3.19c-0.805,1.613-0.678-1.107-1.134,2.476         c-0.455-0.884-0.937-1.898,0.127-3.314c-0.253-0.212-0.398-0.903-0.645-1.126c-0.462,0.877-0.708,2.057-0.864,3.174         c-0.149,1.119-0.133,2.186-0.223,2.844c0.097-0.504,0.222-1.106,0.385-1.399c0,0,0.135,1.351,0.271,2.702         c0.166,1.344,0.388,2.671,0.388,2.671c-0.391,0.799-0.606,0.131-0.815-0.542c0.027,1.078,0.322,1.837,0.379,3.402         c-0.675-0.432-1.502-0.358-1.653-2.638c0,0,0.074,1.289,0.265,2.568c0.166,1.273,0.333,2.546,0.333,2.546         c-0.327,0.331-0.795,2.621-1.08,1.965c-0.087,0.714-0.032,1.508,0.092,2.35c0.164,0.84,0.4,1.728,0.635,2.637         c0.219,0.912,0.482,1.841,0.698,2.776c0.212,0.935,0.315,1.883,0.335,2.826c0.17,0.17,0.37,0.532,0.609,1.294         c0.419,3.453,0.351,6.753,2.529,10.44l-0.449,2.663c1.395,2.969,0.399-3.519,2.752,1.352         c1.778,3.368-0.494,1.739-0.293,3.117c1.381,1.528,3.892,3.896,4.747,7.413C187.018,190.982,186.733,190.096,186.169,189.167         z M213.043,218.007c-0.757-0.24-2.344-0.665-2.504-1.421C211.837,216.267,212.085,217.068,213.043,218.007z M270.439,226.904         c-0.488,0.388-1.373,0.397-2.383,0.24C268.737,226.949,269.523,226.845,270.439,226.904z M302.858,103.322         c0.031,0.009,0.053,0.017,0.083,0.019C303.813,104.644,303.514,104.173,302.858,103.322z M300.754,100.889         c-0.324-0.118-0.387-0.01-0.364,0.171c0.312-0.022,0.868,0.435,1.441,1.02C301.818,101.757,301.605,101.369,300.754,100.889z          M215.069,96.261l-0.645,0.177C215.437,95.408,215.244,95.826,215.069,96.261z" style="fill:#202020;"/><path d="M264,229.13c-0.23-0.12-0.308-0.276-0.375-0.434C263.346,228.881,263.355,229.052,264,229.13z         " style="fill:#202020;"/><path d="M177.929,165.711l-0.011-0.122c-0.064-0.058-0.123-0.085-0.178-0.097L177.929,165.711z" style="fill:#202020;"/><path d="M331.34,142.493c-0.033,0.742-0.142,1.165-0.272,1.452         C331.286,143.958,331.424,143.608,331.34,142.493z" style="fill:#202020;"/><path d="M286.043,92.749c0,0,0.474,0.178,0.947,0.356c0.477,0.174,0.944,0.368,0.944,0.368         c-0.877-0.426-1.104-0.738-1.478-1.092C286.403,92.583,286.608,93.021,286.043,92.749z" style="fill:#202020;"/><path d="M279.013,83.885c-0.125,0.071-0.196-0.054-0.321,0.019l-0.105,0.394         C278.979,84.403,279.357,84.184,279.013,83.885z" style="fill:#202020;"/><path d="M285.636,89.281c0.168-0.735-1.152-1.056-2.546-1.537c0.081,0.034,0.16,0.063,0.237,0.107         C282.529,88.626,284.071,88.949,285.636,89.281z" style="fill:#202020;"/><path d="M282.765,87.636c-0.218-0.067-0.437-0.139-0.65-0.218l-0.317-0.125l-0.147-0.065l-0.043-0.029         c-0.051,0.092-0.068,0.146-0.063,0.176c0.009,0.031,0.011,0.026,0.169,0.065C281.971,87.496,282.367,87.536,282.765,87.636z" style="fill:#202020;"/><path d="M297.313,98.7c-0.417-0.57-0.905,0.489-1.022,0.014         C295.119,98.99,300.521,100.593,297.313,98.7z" style="fill:#202020;"/><polygon points="285.562,86.578 285.674,87.629 286.756,87.311        " style="fill:#202020;"/><path d="M295.644,92.95l-1.889-1.51c-0.051,0.149-0.355,0.061-0.706-0.083         C294.279,92.182,295.541,93.205,295.644,92.95z" style="fill:#202020;"/><path d="M293.049,91.357c-0.647-0.417-1.302-0.753-1.744-0.841         C291.667,90.72,292.466,91.126,293.049,91.357z" style="fill:#202020;"/><path d="M288.67,87.774l0.552,0.497c0,0,0.373,0.21,0.747,0.42c0.375,0.207,0.731,0.445,0.731,0.445         s-0.489-0.369-1.006-0.693C289.182,88.109,288.67,87.774,288.67,87.774z" style="fill:#202020;"/><path d="M313.969,110.904c0,0,0.433,0.496,0.865,0.991c0.217,0.249,0.434,0.497,0.596,0.684         c0.156,0.191,0.26,0.319,0.26,0.319c0.408,0.05,0.18-0.663-0.503-1.386C314.642,111.121,313.979,110.399,313.969,110.904z" style="fill:#202020;"/><path d="M310.86,103.077c0.338,0.679,0.218,0.851,0.26,1.357l0.904-0.681L310.86,103.077z" style="fill:#202020;"/><path d="M316.036,109.047c0.405,0.027,3.035,2.716,0.963-0.077         C316.586,108.917,314.787,106.864,316.036,109.047z" style="fill:#202020;"/><polygon points="328.725,147.016 328.659,146.342 326.821,146.608        " style="fill:#202020;"/><path d="M327.453,183.333c1.634-2.955-0.753-1.15,0.827-3.76c-0.13-0.869-1.286,2.129-1.362,1.248         C326.621,182.835,325.988,183.722,327.453,183.333z" style="fill:#202020;"/><path d="M326.918,180.821c0.048-0.322,0.088-0.666,0.106-1.04         C326.923,180.354,326.907,180.638,326.918,180.821z" style="fill:#202020;"/><polygon points="253.654,84.502 254.234,84.874 253.854,84.261        " style="fill:#202020;"/><path d="M254.748,83.099l0.144,1.178l0.346-1.078C255.105,83.254,254.85,83.363,254.748,83.099z" style="fill:#202020;"/><path d="M216.954,223.14l0.282-0.167c-0.146-0.438-0.576-0.71-1.436-1.26L216.954,223.14z" style="fill:#202020;"/><polygon points="194.822,203.81 195.134,204.208 195.339,202.811        " style="fill:#202020;"/><path d="M180.925,183.257c0.317,0.979,1.033,1.981,1.418,2.933         C181.218,184.237,182.07,182.496,180.925,183.257z" style="fill:#202020;"/></g></g></g></g></g></g></g><g id="Layer_1"/></svg>